<svg width="16" height="16" viewBox="0 0 16 16" fill="none" xmlns="http://www.w3.org/2000/svg">
    <path d="M12.6667 6.07507C12.667 6.17282 12.6476 6.26963 12.6097 6.35989C12.5718 6.45015 12.5162 6.53206 12.4461 6.60085L8.52265 10.4522C8.38281 10.5896 8.19378 10.6667 7.99676 10.6667C7.79974 10.6667 7.61071 10.5896 7.47087 10.4522L3.55405 6.60742C3.41348 6.46928 3.33407 6.2815 3.33329 6.08537C3.33251 5.88924 3.41043 5.70085 3.5499 5.56162C3.68938 5.42239 3.87899 5.34374 4.07701 5.34297C4.27504 5.3422 4.46526 5.41937 4.60584 5.55751L8.00008 8.88797L11.3943 5.55094C11.499 5.44803 11.6321 5.37814 11.7769 5.3501C11.9216 5.32205 12.0715 5.3371 12.2077 5.39335C12.3438 5.4496 12.46 5.54452 12.5417 5.66614C12.6234 5.78777 12.6669 5.93063 12.6667 6.07671L12.6667 6.07507Z" fill="#9C9C9C"/>
</svg>